<?xml version="1.0"?>
<svg version="1.1" xmlns="http://www.w3.org/2000/svg" width="120px" height="70px" style=""><path fill="#2b9ef0" d="M61.3837890625,81.298828125q-0.0537109375-1.611328125-0.0537109375-3.22265625q0-5.048828125,0.537109375-10.1513671875q0.64453125-6.767578125,0.859375-13.3203125q0.21484375-7.6806640625,0.64453125-15.9521484375q0.2685546875-4.51171875,0.2685546875-8.916015625q0-3.5986328125-0.1611328125-7.1435546875q0.537109375-1.2353515625,1.42333984375-1.6650390625t2.22900390625-0.4296875q0.64453125,0,1.36962890625,0.107421875t1.26220703125,0.537109375q0.751953125,0.107421875,1.85302734375,0.21484375t1.69189453125,0.64453125q0.21484375,0.322265625,1.10107421875,2.2021484375t2.0947265625,4.5654296875t2.5244140625,5.82763671875t2.5244140625,5.9619140625t2.0947265625,4.96826171875t1.10107421875,2.685546875q5.048828125-9.130859375,9.8828125-18.77197265625t10.5810546875-18.18115234375q0.537109375-0.751953125,1.85302734375-1.10107421875t2.17529296875-0.34912109375q2.3095703125,0,3.35693359375,1.10107421875t1.36962890625,2.81982421875q0.21484375,1.07421875,0.2685546875,2.3095703125q0.0537109375,0.64453125-0.0537109375,1.3427734375q-0.21484375,1.9873046875-0.21484375,3.759765625q0,12.5146484375-0.859375,24.84130859375t-1.5576171875,24.89501953125q-0.107421875,2.578125-0.107421875,5.37109375t0.107421875,5.80078125q0.0537109375,1.07421875,0.0537109375,2.0947265625q0,4.7265625-0.8056640625,8.80859375q-0.751953125,1.2353515625-2.470703125,1.5576171875t-2.900390625,0.322265625q-2.5244140625,0-4.833984375-1.181640625l-0.5908203125-0.6982421875l-0.21484375-0.859375t-0.107421875-0.859375q0-7.7880859375,0.56396484375-15.68359375t1.26220703125-15.76416015625t1.47705078125-15.71044921875t1.31591796875-15.68359375q-3.1689453125,5.263671875-6.14990234375,10.71533203125t-5.61279296875,11.09130859375q-0.966796875,2.2021484375-1.85302734375,4.7265625t-2.12158203125,4.51171875q-0.64453125,0.966796875-2.17529296875,1.181640625t-2.65869140625,0.21484375q-1.07421875,0-2.22900390625-0.3759765625t-1.58447265625-1.611328125q-1.9873046875-6.0693359375-4.2431640625-11.8701171875t-4.5654296875-11.7626953125q0,3.974609375,0.1611328125,10.28564453125t0.1611328125,13.07861328125t-0.21484375,12.9443359375t-1.0205078125,9.775390625q-0.21484375,1.3427734375-1.74560546875,1.6650390625t-2.65869140625,0.322265625q-0.859375,0-1.63818359375-0.107421875t-1.53076171875-0.4296875z"/><path fill="#3f8dc4" d=""/></svg>
